<mxfile host="app.diagrams.net" modified="2020-09-07T10:28:32.267Z" agent="5.0 (Windows NT 10.0; Win64; x64) AppleWebKit/537.36 (KHTML, like Gecko) Chrome/84.0.4147.135 Safari/537.36" etag="C1ID_GNG0ilI_p3f5TZ8" version="13.6.6" type="github">
  <diagram id="C5RBs43oDa-KdzZeNtuy" name="Page-1">
    <mxGraphModel dx="2249" dy="2051" grid="1" gridSize="10" guides="1" tooltips="1" connect="1" arrows="1" fold="1" page="1" pageScale="1" pageWidth="827" pageHeight="1169" math="0" shadow="0">
      <root>
        <mxCell id="WIyWlLk6GJQsqaUBKTNV-0" />
        <mxCell id="WIyWlLk6GJQsqaUBKTNV-1" parent="WIyWlLk6GJQsqaUBKTNV-0" />
        <mxCell id="SmRQewUJQmmx2cG3J2EY-44" value="&lt;font style=&quot;font-size: 18px&quot;&gt;회원&lt;/font&gt;" style="rounded=1;whiteSpace=wrap;html=1;" parent="WIyWlLk6GJQsqaUBKTNV-1" vertex="1">
          <mxGeometry x="360" y="160" width="200" height="80" as="geometry" />
        </mxCell>
        <mxCell id="SmRQewUJQmmx2cG3J2EY-46" value="&lt;font style=&quot;font-size: 18px&quot;&gt;장바구니&lt;/font&gt;" style="rounded=1;whiteSpace=wrap;html=1;" parent="WIyWlLk6GJQsqaUBKTNV-1" vertex="1">
          <mxGeometry x="360" y="480" width="200" height="80" as="geometry" />
        </mxCell>
        <mxCell id="SmRQewUJQmmx2cG3J2EY-47" value="보관" style="rhombus;whiteSpace=wrap;html=1;" parent="WIyWlLk6GJQsqaUBKTNV-1" vertex="1">
          <mxGeometry x="420" y="320" width="80" height="80" as="geometry" />
        </mxCell>
        <mxCell id="SmRQewUJQmmx2cG3J2EY-48" value="" style="endArrow=none;html=1;exitX=0.5;exitY=1;exitDx=0;exitDy=0;entryX=0.5;entryY=0;entryDx=0;entryDy=0;" parent="WIyWlLk6GJQsqaUBKTNV-1" source="SmRQewUJQmmx2cG3J2EY-44" target="SmRQewUJQmmx2cG3J2EY-47" edge="1">
          <mxGeometry width="50" height="50" relative="1" as="geometry">
            <mxPoint x="300" y="740" as="sourcePoint" />
            <mxPoint x="350" y="690" as="targetPoint" />
          </mxGeometry>
        </mxCell>
        <mxCell id="SmRQewUJQmmx2cG3J2EY-49" value="" style="endArrow=none;html=1;exitX=0.5;exitY=1;exitDx=0;exitDy=0;" parent="WIyWlLk6GJQsqaUBKTNV-1" source="SmRQewUJQmmx2cG3J2EY-47" edge="1">
          <mxGeometry width="50" height="50" relative="1" as="geometry">
            <mxPoint x="300" y="740" as="sourcePoint" />
            <mxPoint x="460" y="479" as="targetPoint" />
          </mxGeometry>
        </mxCell>
        <mxCell id="SmRQewUJQmmx2cG3J2EY-50" value="&lt;font style=&quot;font-size: 18px&quot;&gt;주문&lt;/font&gt;" style="rounded=1;whiteSpace=wrap;html=1;" parent="WIyWlLk6GJQsqaUBKTNV-1" vertex="1">
          <mxGeometry x="800" y="480" width="200" height="80" as="geometry" />
        </mxCell>
        <mxCell id="SmRQewUJQmmx2cG3J2EY-51" value="결제" style="rhombus;whiteSpace=wrap;html=1;" parent="WIyWlLk6GJQsqaUBKTNV-1" vertex="1">
          <mxGeometry x="640" y="480" width="80" height="80" as="geometry" />
        </mxCell>
        <mxCell id="SmRQewUJQmmx2cG3J2EY-52" value="" style="endArrow=none;html=1;entryX=1;entryY=0.5;entryDx=0;entryDy=0;exitX=0;exitY=0.5;exitDx=0;exitDy=0;" parent="WIyWlLk6GJQsqaUBKTNV-1" source="SmRQewUJQmmx2cG3J2EY-51" target="SmRQewUJQmmx2cG3J2EY-46" edge="1">
          <mxGeometry width="50" height="50" relative="1" as="geometry">
            <mxPoint x="380" y="740" as="sourcePoint" />
            <mxPoint x="430" y="690" as="targetPoint" />
          </mxGeometry>
        </mxCell>
        <mxCell id="SmRQewUJQmmx2cG3J2EY-53" value="" style="endArrow=none;html=1;entryX=1;entryY=0.5;entryDx=0;entryDy=0;exitX=0;exitY=0.5;exitDx=0;exitDy=0;" parent="WIyWlLk6GJQsqaUBKTNV-1" source="SmRQewUJQmmx2cG3J2EY-50" target="SmRQewUJQmmx2cG3J2EY-51" edge="1">
          <mxGeometry width="50" height="50" relative="1" as="geometry">
            <mxPoint x="420" y="740" as="sourcePoint" />
            <mxPoint x="470" y="690" as="targetPoint" />
          </mxGeometry>
        </mxCell>
        <mxCell id="SmRQewUJQmmx2cG3J2EY-54" value="&lt;font style=&quot;font-size: 18px&quot;&gt;서적&lt;/font&gt;" style="rounded=1;whiteSpace=wrap;html=1;" parent="WIyWlLk6GJQsqaUBKTNV-1" vertex="1">
          <mxGeometry x="800" y="800" width="200" height="80" as="geometry" />
        </mxCell>
        <mxCell id="SmRQewUJQmmx2cG3J2EY-55" value="선택" style="rhombus;whiteSpace=wrap;html=1;" parent="WIyWlLk6GJQsqaUBKTNV-1" vertex="1">
          <mxGeometry x="860" y="640" width="80" height="80" as="geometry" />
        </mxCell>
        <mxCell id="SmRQewUJQmmx2cG3J2EY-56" value="" style="endArrow=none;html=1;entryX=0.5;entryY=1;entryDx=0;entryDy=0;exitX=0.5;exitY=0;exitDx=0;exitDy=0;" parent="WIyWlLk6GJQsqaUBKTNV-1" source="SmRQewUJQmmx2cG3J2EY-55" target="SmRQewUJQmmx2cG3J2EY-50" edge="1">
          <mxGeometry width="50" height="50" relative="1" as="geometry">
            <mxPoint x="460" y="740" as="sourcePoint" />
            <mxPoint x="510" y="690" as="targetPoint" />
          </mxGeometry>
        </mxCell>
        <mxCell id="SmRQewUJQmmx2cG3J2EY-57" value="" style="endArrow=none;html=1;entryX=0.5;entryY=1;entryDx=0;entryDy=0;exitX=0.5;exitY=0;exitDx=0;exitDy=0;" parent="WIyWlLk6GJQsqaUBKTNV-1" source="SmRQewUJQmmx2cG3J2EY-54" target="SmRQewUJQmmx2cG3J2EY-55" edge="1">
          <mxGeometry width="50" height="50" relative="1" as="geometry">
            <mxPoint x="460" y="780" as="sourcePoint" />
            <mxPoint x="510" y="730" as="targetPoint" />
          </mxGeometry>
        </mxCell>
        <mxCell id="SmRQewUJQmmx2cG3J2EY-58" value="&lt;font style=&quot;font-size: 18px&quot;&gt;한줄평&lt;/font&gt;" style="rounded=1;whiteSpace=wrap;html=1;" parent="WIyWlLk6GJQsqaUBKTNV-1" vertex="1">
          <mxGeometry x="360" y="800" width="200" height="80" as="geometry" />
        </mxCell>
        <mxCell id="SmRQewUJQmmx2cG3J2EY-59" value="작성" style="rhombus;whiteSpace=wrap;html=1;" parent="WIyWlLk6GJQsqaUBKTNV-1" vertex="1">
          <mxGeometry x="640" y="640" width="80" height="80" as="geometry" />
        </mxCell>
        <mxCell id="SmRQewUJQmmx2cG3J2EY-60" value="" style="endArrow=none;html=1;entryX=0;entryY=0.5;entryDx=0;entryDy=0;exitX=0.5;exitY=0;exitDx=0;exitDy=0;" parent="WIyWlLk6GJQsqaUBKTNV-1" source="SmRQewUJQmmx2cG3J2EY-58" target="SmRQewUJQmmx2cG3J2EY-59" edge="1">
          <mxGeometry width="50" height="50" relative="1" as="geometry">
            <mxPoint x="380" y="740" as="sourcePoint" />
            <mxPoint x="430" y="690" as="targetPoint" />
            <Array as="points">
              <mxPoint x="460" y="680" />
            </Array>
          </mxGeometry>
        </mxCell>
        <mxCell id="SmRQewUJQmmx2cG3J2EY-61" value="" style="endArrow=none;html=1;exitX=0.14;exitY=0.988;exitDx=0;exitDy=0;entryX=1;entryY=0.5;entryDx=0;entryDy=0;exitPerimeter=0;" parent="WIyWlLk6GJQsqaUBKTNV-1" source="SmRQewUJQmmx2cG3J2EY-50" target="SmRQewUJQmmx2cG3J2EY-59" edge="1">
          <mxGeometry width="50" height="50" relative="1" as="geometry">
            <mxPoint x="420" y="740" as="sourcePoint" />
            <mxPoint x="770" y="650" as="targetPoint" />
            <Array as="points">
              <mxPoint x="828" y="680" />
            </Array>
          </mxGeometry>
        </mxCell>
        <mxCell id="SmRQewUJQmmx2cG3J2EY-67" value="&lt;font style=&quot;font-size: 18px&quot;&gt;반품&lt;/font&gt;" style="rounded=1;whiteSpace=wrap;html=1;" parent="WIyWlLk6GJQsqaUBKTNV-1" vertex="1">
          <mxGeometry x="1241" y="480" width="200" height="80" as="geometry" />
        </mxCell>
        <mxCell id="SmRQewUJQmmx2cG3J2EY-68" value="환불" style="rhombus;whiteSpace=wrap;html=1;" parent="WIyWlLk6GJQsqaUBKTNV-1" vertex="1">
          <mxGeometry x="1080" y="480" width="80" height="80" as="geometry" />
        </mxCell>
        <mxCell id="SmRQewUJQmmx2cG3J2EY-69" value="" style="endArrow=none;html=1;entryX=1;entryY=0.5;entryDx=0;entryDy=0;exitX=0;exitY=0.5;exitDx=0;exitDy=0;" parent="WIyWlLk6GJQsqaUBKTNV-1" source="SmRQewUJQmmx2cG3J2EY-68" target="SmRQewUJQmmx2cG3J2EY-50" edge="1">
          <mxGeometry width="50" height="50" relative="1" as="geometry">
            <mxPoint x="560" y="520" as="sourcePoint" />
            <mxPoint x="610" y="470" as="targetPoint" />
          </mxGeometry>
        </mxCell>
        <mxCell id="SmRQewUJQmmx2cG3J2EY-70" value="" style="endArrow=none;html=1;entryX=0;entryY=0.5;entryDx=0;entryDy=0;exitX=1;exitY=0.5;exitDx=0;exitDy=0;" parent="WIyWlLk6GJQsqaUBKTNV-1" source="SmRQewUJQmmx2cG3J2EY-68" target="SmRQewUJQmmx2cG3J2EY-67" edge="1">
          <mxGeometry width="50" height="50" relative="1" as="geometry">
            <mxPoint x="1090" y="530" as="sourcePoint" />
            <mxPoint x="1010" y="530" as="targetPoint" />
          </mxGeometry>
        </mxCell>
        <mxCell id="SmRQewUJQmmx2cG3J2EY-71" value="회원ID" style="ellipse;whiteSpace=wrap;html=1;fillColor=#f8cecc;strokeColor=#b85450;" parent="WIyWlLk6GJQsqaUBKTNV-1" vertex="1">
          <mxGeometry x="310" y="90" width="80" height="40" as="geometry" />
        </mxCell>
        <mxCell id="SmRQewUJQmmx2cG3J2EY-72" value="비밀번호" style="ellipse;whiteSpace=wrap;html=1;" parent="WIyWlLk6GJQsqaUBKTNV-1" vertex="1">
          <mxGeometry x="420" y="90" width="80" height="40" as="geometry" />
        </mxCell>
        <mxCell id="SmRQewUJQmmx2cG3J2EY-73" value="회원명" style="ellipse;whiteSpace=wrap;html=1;" parent="WIyWlLk6GJQsqaUBKTNV-1" vertex="1">
          <mxGeometry x="530" y="90" width="80" height="40" as="geometry" />
        </mxCell>
        <mxCell id="SmRQewUJQmmx2cG3J2EY-74" value="주소" style="ellipse;whiteSpace=wrap;html=1;" parent="WIyWlLk6GJQsqaUBKTNV-1" vertex="1">
          <mxGeometry x="310" y="30" width="80" height="40" as="geometry" />
        </mxCell>
        <mxCell id="SmRQewUJQmmx2cG3J2EY-75" value="전화번호" style="ellipse;whiteSpace=wrap;html=1;" parent="WIyWlLk6GJQsqaUBKTNV-1" vertex="1">
          <mxGeometry x="420" y="-30" width="80" height="40" as="geometry" />
        </mxCell>
        <mxCell id="SmRQewUJQmmx2cG3J2EY-76" value="마일리지" style="ellipse;whiteSpace=wrap;html=1;" parent="WIyWlLk6GJQsqaUBKTNV-1" vertex="1">
          <mxGeometry x="530" y="30" width="80" height="40" as="geometry" />
        </mxCell>
        <mxCell id="SmRQewUJQmmx2cG3J2EY-77" value="상세주소" style="ellipse;whiteSpace=wrap;html=1;" parent="WIyWlLk6GJQsqaUBKTNV-1" vertex="1">
          <mxGeometry x="310" y="-30" width="80" height="40" as="geometry" />
        </mxCell>
        <mxCell id="SmRQewUJQmmx2cG3J2EY-78" value="" style="endArrow=none;html=1;exitX=0;exitY=1;exitDx=0;exitDy=0;entryX=1;entryY=1;entryDx=0;entryDy=0;" parent="WIyWlLk6GJQsqaUBKTNV-1" source="SmRQewUJQmmx2cG3J2EY-71" target="SmRQewUJQmmx2cG3J2EY-71" edge="1">
          <mxGeometry width="50" height="50" relative="1" as="geometry">
            <mxPoint x="660" y="290" as="sourcePoint" />
            <mxPoint x="710" y="240" as="targetPoint" />
          </mxGeometry>
        </mxCell>
        <mxCell id="SmRQewUJQmmx2cG3J2EY-79" value="" style="endArrow=none;html=1;entryX=0.5;entryY=1;entryDx=0;entryDy=0;exitX=0.5;exitY=0;exitDx=0;exitDy=0;" parent="WIyWlLk6GJQsqaUBKTNV-1" source="SmRQewUJQmmx2cG3J2EY-44" target="SmRQewUJQmmx2cG3J2EY-71" edge="1">
          <mxGeometry width="50" height="50" relative="1" as="geometry">
            <mxPoint x="660" y="290" as="sourcePoint" />
            <mxPoint x="710" y="240" as="targetPoint" />
          </mxGeometry>
        </mxCell>
        <mxCell id="SmRQewUJQmmx2cG3J2EY-80" value="" style="endArrow=none;html=1;entryX=0.5;entryY=1;entryDx=0;entryDy=0;exitX=0.5;exitY=0;exitDx=0;exitDy=0;" parent="WIyWlLk6GJQsqaUBKTNV-1" source="SmRQewUJQmmx2cG3J2EY-44" target="SmRQewUJQmmx2cG3J2EY-72" edge="1">
          <mxGeometry width="50" height="50" relative="1" as="geometry">
            <mxPoint x="660" y="290" as="sourcePoint" />
            <mxPoint x="710" y="240" as="targetPoint" />
          </mxGeometry>
        </mxCell>
        <mxCell id="SmRQewUJQmmx2cG3J2EY-81" value="" style="endArrow=none;html=1;entryX=0.5;entryY=1;entryDx=0;entryDy=0;exitX=0.5;exitY=0;exitDx=0;exitDy=0;" parent="WIyWlLk6GJQsqaUBKTNV-1" source="SmRQewUJQmmx2cG3J2EY-44" target="SmRQewUJQmmx2cG3J2EY-73" edge="1">
          <mxGeometry width="50" height="50" relative="1" as="geometry">
            <mxPoint x="660" y="290" as="sourcePoint" />
            <mxPoint x="710" y="240" as="targetPoint" />
          </mxGeometry>
        </mxCell>
        <mxCell id="SmRQewUJQmmx2cG3J2EY-82" value="" style="endArrow=none;html=1;entryX=0.5;entryY=1;entryDx=0;entryDy=0;exitX=0.5;exitY=0;exitDx=0;exitDy=0;" parent="WIyWlLk6GJQsqaUBKTNV-1" source="SmRQewUJQmmx2cG3J2EY-73" target="SmRQewUJQmmx2cG3J2EY-76" edge="1">
          <mxGeometry width="50" height="50" relative="1" as="geometry">
            <mxPoint x="660" y="290" as="sourcePoint" />
            <mxPoint x="710" y="240" as="targetPoint" />
          </mxGeometry>
        </mxCell>
        <mxCell id="SmRQewUJQmmx2cG3J2EY-83" value="" style="endArrow=none;html=1;entryX=0.5;entryY=1;entryDx=0;entryDy=0;exitX=0.5;exitY=0;exitDx=0;exitDy=0;" parent="WIyWlLk6GJQsqaUBKTNV-1" source="SmRQewUJQmmx2cG3J2EY-72" target="SmRQewUJQmmx2cG3J2EY-159" edge="1">
          <mxGeometry width="50" height="50" relative="1" as="geometry">
            <mxPoint x="660" y="290" as="sourcePoint" />
            <mxPoint x="710" y="240" as="targetPoint" />
          </mxGeometry>
        </mxCell>
        <mxCell id="SmRQewUJQmmx2cG3J2EY-84" value="" style="endArrow=none;html=1;entryX=0.5;entryY=1;entryDx=0;entryDy=0;exitX=0.5;exitY=0;exitDx=0;exitDy=0;" parent="WIyWlLk6GJQsqaUBKTNV-1" source="SmRQewUJQmmx2cG3J2EY-71" target="SmRQewUJQmmx2cG3J2EY-74" edge="1">
          <mxGeometry width="50" height="50" relative="1" as="geometry">
            <mxPoint x="660" y="290" as="sourcePoint" />
            <mxPoint x="710" y="240" as="targetPoint" />
          </mxGeometry>
        </mxCell>
        <mxCell id="SmRQewUJQmmx2cG3J2EY-85" value="" style="endArrow=none;html=1;entryX=0.5;entryY=1;entryDx=0;entryDy=0;exitX=0.5;exitY=0;exitDx=0;exitDy=0;" parent="WIyWlLk6GJQsqaUBKTNV-1" source="SmRQewUJQmmx2cG3J2EY-74" target="SmRQewUJQmmx2cG3J2EY-77" edge="1">
          <mxGeometry width="50" height="50" relative="1" as="geometry">
            <mxPoint x="660" y="290" as="sourcePoint" />
            <mxPoint x="710" y="240" as="targetPoint" />
          </mxGeometry>
        </mxCell>
        <mxCell id="SmRQewUJQmmx2cG3J2EY-86" value="&lt;font style=&quot;font-size: 18px&quot;&gt;카테고리&lt;/font&gt;" style="rounded=1;whiteSpace=wrap;html=1;" parent="WIyWlLk6GJQsqaUBKTNV-1" vertex="1">
          <mxGeometry x="1241" y="640" width="200" height="80" as="geometry" />
        </mxCell>
        <mxCell id="SmRQewUJQmmx2cG3J2EY-87" value="분류" style="rhombus;whiteSpace=wrap;html=1;" parent="WIyWlLk6GJQsqaUBKTNV-1" vertex="1">
          <mxGeometry x="1080" y="640" width="80" height="80" as="geometry" />
        </mxCell>
        <mxCell id="SmRQewUJQmmx2cG3J2EY-89" value="" style="endArrow=none;html=1;entryX=1;entryY=0.5;entryDx=0;entryDy=0;exitX=0;exitY=0.5;exitDx=0;exitDy=0;" parent="WIyWlLk6GJQsqaUBKTNV-1" source="SmRQewUJQmmx2cG3J2EY-86" target="SmRQewUJQmmx2cG3J2EY-87" edge="1">
          <mxGeometry width="50" height="50" relative="1" as="geometry">
            <mxPoint x="820" y="410" as="sourcePoint" />
            <mxPoint x="870" y="360" as="targetPoint" />
          </mxGeometry>
        </mxCell>
        <mxCell id="SmRQewUJQmmx2cG3J2EY-90" value="분류코드" style="ellipse;whiteSpace=wrap;html=1;fillColor=#f8cecc;strokeColor=#b85450;" parent="WIyWlLk6GJQsqaUBKTNV-1" vertex="1">
          <mxGeometry x="1460" y="635" width="80" height="40" as="geometry" />
        </mxCell>
        <mxCell id="SmRQewUJQmmx2cG3J2EY-91" value="분류명" style="ellipse;whiteSpace=wrap;html=1;" parent="WIyWlLk6GJQsqaUBKTNV-1" vertex="1">
          <mxGeometry x="1460" y="685" width="80" height="40" as="geometry" />
        </mxCell>
        <mxCell id="SmRQewUJQmmx2cG3J2EY-92" value="장바구니 코드" style="ellipse;whiteSpace=wrap;html=1;fillColor=#f8cecc;strokeColor=#b85450;" parent="WIyWlLk6GJQsqaUBKTNV-1" vertex="1">
          <mxGeometry x="260" y="425" width="80" height="40" as="geometry" />
        </mxCell>
        <mxCell id="SmRQewUJQmmx2cG3J2EY-93" value="주문번호" style="ellipse;whiteSpace=wrap;html=1;fillColor=#dae8fc;strokeColor=#6c8ebf;" parent="WIyWlLk6GJQsqaUBKTNV-1" vertex="1">
          <mxGeometry x="260" y="525" width="80" height="40" as="geometry" />
        </mxCell>
        <mxCell id="SmRQewUJQmmx2cG3J2EY-94" value="회원ID" style="ellipse;whiteSpace=wrap;html=1;fillColor=#dae8fc;strokeColor=#6c8ebf;" parent="WIyWlLk6GJQsqaUBKTNV-1" vertex="1">
          <mxGeometry x="260" y="475" width="80" height="40" as="geometry" />
        </mxCell>
        <mxCell id="SmRQewUJQmmx2cG3J2EY-95" value="장바구니&lt;br&gt;조회" style="ellipse;whiteSpace=wrap;html=1;" parent="WIyWlLk6GJQsqaUBKTNV-1" vertex="1">
          <mxGeometry x="260" y="575" width="80" height="40" as="geometry" />
        </mxCell>
        <mxCell id="SmRQewUJQmmx2cG3J2EY-97" value="주문번호" style="ellipse;whiteSpace=wrap;html=1;fillColor=#f8cecc;strokeColor=#b85450;" parent="WIyWlLk6GJQsqaUBKTNV-1" vertex="1">
          <mxGeometry x="750" y="420" width="80" height="40" as="geometry" />
        </mxCell>
        <mxCell id="SmRQewUJQmmx2cG3J2EY-98" value="장바구니 코드" style="ellipse;whiteSpace=wrap;html=1;fillColor=#dae8fc;strokeColor=#6c8ebf;" parent="WIyWlLk6GJQsqaUBKTNV-1" vertex="1">
          <mxGeometry x="860" y="420" width="80" height="40" as="geometry" />
        </mxCell>
        <mxCell id="SmRQewUJQmmx2cG3J2EY-99" value="총 수량" style="ellipse;whiteSpace=wrap;html=1;" parent="WIyWlLk6GJQsqaUBKTNV-1" vertex="1">
          <mxGeometry x="970" y="360" width="80" height="40" as="geometry" />
        </mxCell>
        <mxCell id="SmRQewUJQmmx2cG3J2EY-100" value="" style="endArrow=none;html=1;exitX=0;exitY=1;exitDx=0;exitDy=0;entryX=1;entryY=1;entryDx=0;entryDy=0;" parent="WIyWlLk6GJQsqaUBKTNV-1" source="SmRQewUJQmmx2cG3J2EY-92" target="SmRQewUJQmmx2cG3J2EY-92" edge="1">
          <mxGeometry width="50" height="50" relative="1" as="geometry">
            <mxPoint x="820" y="290" as="sourcePoint" />
            <mxPoint x="870" y="240" as="targetPoint" />
          </mxGeometry>
        </mxCell>
        <mxCell id="SmRQewUJQmmx2cG3J2EY-101" value="" style="endArrow=none;html=1;exitX=0;exitY=1;exitDx=0;exitDy=0;entryX=1;entryY=1;entryDx=0;entryDy=0;" parent="WIyWlLk6GJQsqaUBKTNV-1" source="SmRQewUJQmmx2cG3J2EY-97" target="SmRQewUJQmmx2cG3J2EY-97" edge="1">
          <mxGeometry width="50" height="50" relative="1" as="geometry">
            <mxPoint x="820" y="290" as="sourcePoint" />
            <mxPoint x="870" y="240" as="targetPoint" />
          </mxGeometry>
        </mxCell>
        <mxCell id="SmRQewUJQmmx2cG3J2EY-102" value="" style="endArrow=none;html=1;exitX=0;exitY=1;exitDx=0;exitDy=0;entryX=1;entryY=1;entryDx=0;entryDy=0;" parent="WIyWlLk6GJQsqaUBKTNV-1" source="SmRQewUJQmmx2cG3J2EY-98" target="SmRQewUJQmmx2cG3J2EY-98" edge="1">
          <mxGeometry width="50" height="50" relative="1" as="geometry">
            <mxPoint x="820" y="290" as="sourcePoint" />
            <mxPoint x="870" y="240" as="targetPoint" />
          </mxGeometry>
        </mxCell>
        <mxCell id="SmRQewUJQmmx2cG3J2EY-103" value="서적코드" style="ellipse;whiteSpace=wrap;html=1;fillColor=#f8cecc;strokeColor=#b85450;" parent="WIyWlLk6GJQsqaUBKTNV-1" vertex="1">
          <mxGeometry x="760" y="900" width="80" height="40" as="geometry" />
        </mxCell>
        <mxCell id="SmRQewUJQmmx2cG3J2EY-105" value="분류코드" style="ellipse;whiteSpace=wrap;html=1;fillColor=#dae8fc;strokeColor=#6c8ebf;" parent="WIyWlLk6GJQsqaUBKTNV-1" vertex="1">
          <mxGeometry x="860" y="900" width="80" height="40" as="geometry" />
        </mxCell>
        <mxCell id="SmRQewUJQmmx2cG3J2EY-107" value="서적명" style="ellipse;whiteSpace=wrap;html=1;" parent="WIyWlLk6GJQsqaUBKTNV-1" vertex="1">
          <mxGeometry x="960" y="900" width="80" height="40" as="geometry" />
        </mxCell>
        <mxCell id="SmRQewUJQmmx2cG3J2EY-108" value="" style="endArrow=none;html=1;entryX=0;entryY=1;entryDx=0;entryDy=0;exitX=1;exitY=1;exitDx=0;exitDy=0;" parent="WIyWlLk6GJQsqaUBKTNV-1" source="SmRQewUJQmmx2cG3J2EY-90" target="SmRQewUJQmmx2cG3J2EY-90" edge="1">
          <mxGeometry width="50" height="50" relative="1" as="geometry">
            <mxPoint x="820" y="640" as="sourcePoint" />
            <mxPoint x="870" y="590" as="targetPoint" />
          </mxGeometry>
        </mxCell>
        <mxCell id="SmRQewUJQmmx2cG3J2EY-110" value="주문번호" style="ellipse;whiteSpace=wrap;html=1;fillColor=#dae8fc;strokeColor=#6c8ebf;" parent="WIyWlLk6GJQsqaUBKTNV-1" vertex="1">
          <mxGeometry x="320" y="900" width="80" height="40" as="geometry" />
        </mxCell>
        <mxCell id="SmRQewUJQmmx2cG3J2EY-111" value="서적코드" style="ellipse;whiteSpace=wrap;html=1;fillColor=#dae8fc;strokeColor=#6c8ebf;" parent="WIyWlLk6GJQsqaUBKTNV-1" vertex="1">
          <mxGeometry x="420" y="900" width="80" height="40" as="geometry" />
        </mxCell>
        <mxCell id="SmRQewUJQmmx2cG3J2EY-112" value="관리자ID" style="ellipse;whiteSpace=wrap;html=1;fillColor=#dae8fc;strokeColor=#6c8ebf;" parent="WIyWlLk6GJQsqaUBKTNV-1" vertex="1">
          <mxGeometry x="520" y="900" width="80" height="40" as="geometry" />
        </mxCell>
        <mxCell id="SmRQewUJQmmx2cG3J2EY-113" value="" style="endArrow=none;html=1;exitX=0;exitY=1;exitDx=0;exitDy=0;entryX=1;entryY=1;entryDx=0;entryDy=0;" parent="WIyWlLk6GJQsqaUBKTNV-1" source="SmRQewUJQmmx2cG3J2EY-110" target="SmRQewUJQmmx2cG3J2EY-110" edge="1">
          <mxGeometry width="50" height="50" relative="1" as="geometry">
            <mxPoint x="820" y="640" as="sourcePoint" />
            <mxPoint x="870" y="590" as="targetPoint" />
          </mxGeometry>
        </mxCell>
        <mxCell id="SmRQewUJQmmx2cG3J2EY-114" value="서평" style="rhombus;whiteSpace=wrap;html=1;" parent="WIyWlLk6GJQsqaUBKTNV-1" vertex="1">
          <mxGeometry x="640" y="800" width="80" height="80" as="geometry" />
        </mxCell>
        <mxCell id="SmRQewUJQmmx2cG3J2EY-115" value="" style="endArrow=none;html=1;exitX=0;exitY=0.5;exitDx=0;exitDy=0;entryX=1;entryY=0.5;entryDx=0;entryDy=0;" parent="WIyWlLk6GJQsqaUBKTNV-1" source="SmRQewUJQmmx2cG3J2EY-114" target="SmRQewUJQmmx2cG3J2EY-58" edge="1">
          <mxGeometry width="50" height="50" relative="1" as="geometry">
            <mxPoint x="820" y="640" as="sourcePoint" />
            <mxPoint x="870" y="590" as="targetPoint" />
          </mxGeometry>
        </mxCell>
        <mxCell id="SmRQewUJQmmx2cG3J2EY-116" value="" style="endArrow=none;html=1;exitX=1;exitY=0.5;exitDx=0;exitDy=0;entryX=0;entryY=0.5;entryDx=0;entryDy=0;" parent="WIyWlLk6GJQsqaUBKTNV-1" source="SmRQewUJQmmx2cG3J2EY-114" target="SmRQewUJQmmx2cG3J2EY-54" edge="1">
          <mxGeometry width="50" height="50" relative="1" as="geometry">
            <mxPoint x="650" y="850" as="sourcePoint" />
            <mxPoint x="570" y="850" as="targetPoint" />
          </mxGeometry>
        </mxCell>
        <mxCell id="SmRQewUJQmmx2cG3J2EY-117" value="" style="endArrow=none;html=1;exitX=0;exitY=1;exitDx=0;exitDy=0;entryX=1;entryY=1;entryDx=0;entryDy=0;" parent="WIyWlLk6GJQsqaUBKTNV-1" source="SmRQewUJQmmx2cG3J2EY-111" target="SmRQewUJQmmx2cG3J2EY-111" edge="1">
          <mxGeometry width="50" height="50" relative="1" as="geometry">
            <mxPoint x="820" y="640" as="sourcePoint" />
            <mxPoint x="860" y="590" as="targetPoint" />
          </mxGeometry>
        </mxCell>
        <mxCell id="SmRQewUJQmmx2cG3J2EY-122" value="" style="endArrow=none;html=1;exitX=1;exitY=0.5;exitDx=0;exitDy=0;entryX=0;entryY=0.5;entryDx=0;entryDy=0;" parent="WIyWlLk6GJQsqaUBKTNV-1" source="SmRQewUJQmmx2cG3J2EY-92" target="SmRQewUJQmmx2cG3J2EY-46" edge="1">
          <mxGeometry width="50" height="50" relative="1" as="geometry">
            <mxPoint x="820" y="610" as="sourcePoint" />
            <mxPoint x="870" y="560" as="targetPoint" />
          </mxGeometry>
        </mxCell>
        <mxCell id="SmRQewUJQmmx2cG3J2EY-123" value="" style="endArrow=none;html=1;exitX=1;exitY=0.5;exitDx=0;exitDy=0;entryX=0;entryY=0.5;entryDx=0;entryDy=0;" parent="WIyWlLk6GJQsqaUBKTNV-1" source="SmRQewUJQmmx2cG3J2EY-95" target="SmRQewUJQmmx2cG3J2EY-46" edge="1">
          <mxGeometry width="50" height="50" relative="1" as="geometry">
            <mxPoint x="820" y="610" as="sourcePoint" />
            <mxPoint x="870" y="560" as="targetPoint" />
          </mxGeometry>
        </mxCell>
        <mxCell id="SmRQewUJQmmx2cG3J2EY-124" value="" style="endArrow=none;html=1;exitX=1;exitY=0.5;exitDx=0;exitDy=0;entryX=0;entryY=0.5;entryDx=0;entryDy=0;" parent="WIyWlLk6GJQsqaUBKTNV-1" source="SmRQewUJQmmx2cG3J2EY-93" target="SmRQewUJQmmx2cG3J2EY-46" edge="1">
          <mxGeometry width="50" height="50" relative="1" as="geometry">
            <mxPoint x="820" y="610" as="sourcePoint" />
            <mxPoint x="870" y="560" as="targetPoint" />
          </mxGeometry>
        </mxCell>
        <mxCell id="SmRQewUJQmmx2cG3J2EY-125" value="" style="endArrow=none;html=1;exitX=1;exitY=0.5;exitDx=0;exitDy=0;entryX=0;entryY=0.5;entryDx=0;entryDy=0;" parent="WIyWlLk6GJQsqaUBKTNV-1" source="SmRQewUJQmmx2cG3J2EY-94" target="SmRQewUJQmmx2cG3J2EY-46" edge="1">
          <mxGeometry width="50" height="50" relative="1" as="geometry">
            <mxPoint x="820" y="610" as="sourcePoint" />
            <mxPoint x="870" y="560" as="targetPoint" />
          </mxGeometry>
        </mxCell>
        <mxCell id="SmRQewUJQmmx2cG3J2EY-126" value="" style="endArrow=none;html=1;exitX=0;exitY=1;exitDx=0;exitDy=0;entryX=1;entryY=1;entryDx=0;entryDy=0;" parent="WIyWlLk6GJQsqaUBKTNV-1" source="SmRQewUJQmmx2cG3J2EY-94" target="SmRQewUJQmmx2cG3J2EY-94" edge="1">
          <mxGeometry width="50" height="50" relative="1" as="geometry">
            <mxPoint x="820" y="490" as="sourcePoint" />
            <mxPoint x="870" y="440" as="targetPoint" />
          </mxGeometry>
        </mxCell>
        <mxCell id="SmRQewUJQmmx2cG3J2EY-129" value="주문번호" style="ellipse;whiteSpace=wrap;html=1;fillColor=#dae8fc;strokeColor=#6c8ebf;" parent="WIyWlLk6GJQsqaUBKTNV-1" vertex="1">
          <mxGeometry x="1460" y="475" width="80" height="40" as="geometry" />
        </mxCell>
        <mxCell id="SmRQewUJQmmx2cG3J2EY-130" value="반품일자" style="ellipse;whiteSpace=wrap;html=1;" parent="WIyWlLk6GJQsqaUBKTNV-1" vertex="1">
          <mxGeometry x="1460" y="525" width="80" height="40" as="geometry" />
        </mxCell>
        <mxCell id="SmRQewUJQmmx2cG3J2EY-131" value="" style="endArrow=none;html=1;entryX=0;entryY=1;entryDx=0;entryDy=0;exitX=1;exitY=1;exitDx=0;exitDy=0;" parent="WIyWlLk6GJQsqaUBKTNV-1" source="SmRQewUJQmmx2cG3J2EY-129" target="SmRQewUJQmmx2cG3J2EY-129" edge="1">
          <mxGeometry width="50" height="50" relative="1" as="geometry">
            <mxPoint x="820" y="480" as="sourcePoint" />
            <mxPoint x="870" y="430" as="targetPoint" />
          </mxGeometry>
        </mxCell>
        <mxCell id="SmRQewUJQmmx2cG3J2EY-132" value="" style="endArrow=none;html=1;entryX=1;entryY=0.5;entryDx=0;entryDy=0;exitX=0;exitY=0.5;exitDx=0;exitDy=0;" parent="WIyWlLk6GJQsqaUBKTNV-1" source="SmRQewUJQmmx2cG3J2EY-129" target="SmRQewUJQmmx2cG3J2EY-67" edge="1">
          <mxGeometry width="50" height="50" relative="1" as="geometry">
            <mxPoint x="820" y="490" as="sourcePoint" />
            <mxPoint x="870" y="440" as="targetPoint" />
          </mxGeometry>
        </mxCell>
        <mxCell id="SmRQewUJQmmx2cG3J2EY-133" value="" style="endArrow=none;html=1;entryX=1;entryY=0.5;entryDx=0;entryDy=0;exitX=0;exitY=0.5;exitDx=0;exitDy=0;" parent="WIyWlLk6GJQsqaUBKTNV-1" source="SmRQewUJQmmx2cG3J2EY-130" target="SmRQewUJQmmx2cG3J2EY-67" edge="1">
          <mxGeometry width="50" height="50" relative="1" as="geometry">
            <mxPoint x="1469.9999999999745" y="505" as="sourcePoint" />
            <mxPoint x="1451" y="530" as="targetPoint" />
          </mxGeometry>
        </mxCell>
        <mxCell id="SmRQewUJQmmx2cG3J2EY-134" value="주문일자" style="ellipse;whiteSpace=wrap;html=1;" parent="WIyWlLk6GJQsqaUBKTNV-1" vertex="1">
          <mxGeometry x="750" y="360" width="80" height="40" as="geometry" />
        </mxCell>
        <mxCell id="SmRQewUJQmmx2cG3J2EY-135" value="결제 총 금액" style="ellipse;whiteSpace=wrap;html=1;" parent="WIyWlLk6GJQsqaUBKTNV-1" vertex="1">
          <mxGeometry x="860" y="360" width="80" height="40" as="geometry" />
        </mxCell>
        <mxCell id="SmRQewUJQmmx2cG3J2EY-136" value="서적코드" style="ellipse;whiteSpace=wrap;html=1;fillColor=#dae8fc;strokeColor=#6c8ebf;" parent="WIyWlLk6GJQsqaUBKTNV-1" vertex="1">
          <mxGeometry x="970" y="420" width="80" height="40" as="geometry" />
        </mxCell>
        <mxCell id="SmRQewUJQmmx2cG3J2EY-139" value="" style="endArrow=none;html=1;exitX=0;exitY=1;exitDx=0;exitDy=0;entryX=1;entryY=1;entryDx=0;entryDy=0;" parent="WIyWlLk6GJQsqaUBKTNV-1" source="SmRQewUJQmmx2cG3J2EY-136" target="SmRQewUJQmmx2cG3J2EY-136" edge="1">
          <mxGeometry width="50" height="50" relative="1" as="geometry">
            <mxPoint x="820" y="490" as="sourcePoint" />
            <mxPoint x="870" y="440" as="targetPoint" />
          </mxGeometry>
        </mxCell>
        <mxCell id="SmRQewUJQmmx2cG3J2EY-140" value="" style="endArrow=none;html=1;exitX=0;exitY=1;exitDx=0;exitDy=0;entryX=1;entryY=1;entryDx=0;entryDy=0;" parent="WIyWlLk6GJQsqaUBKTNV-1" source="SmRQewUJQmmx2cG3J2EY-93" target="SmRQewUJQmmx2cG3J2EY-93" edge="1">
          <mxGeometry width="50" height="50" relative="1" as="geometry">
            <mxPoint x="820" y="490" as="sourcePoint" />
            <mxPoint x="870" y="440" as="targetPoint" />
          </mxGeometry>
        </mxCell>
        <mxCell id="SmRQewUJQmmx2cG3J2EY-142" value="장바구니&lt;br&gt;변경" style="ellipse;whiteSpace=wrap;html=1;" parent="WIyWlLk6GJQsqaUBKTNV-1" vertex="1">
          <mxGeometry x="160" y="475" width="80" height="40" as="geometry" />
        </mxCell>
        <mxCell id="SmRQewUJQmmx2cG3J2EY-143" value="장바구니&lt;br&gt;선택" style="ellipse;whiteSpace=wrap;html=1;" parent="WIyWlLk6GJQsqaUBKTNV-1" vertex="1">
          <mxGeometry x="160" y="425" width="80" height="40" as="geometry" />
        </mxCell>
        <mxCell id="SmRQewUJQmmx2cG3J2EY-144" value="장바구니&lt;br&gt;취소" style="ellipse;whiteSpace=wrap;html=1;" parent="WIyWlLk6GJQsqaUBKTNV-1" vertex="1">
          <mxGeometry x="160" y="525" width="80" height="40" as="geometry" />
        </mxCell>
        <mxCell id="SmRQewUJQmmx2cG3J2EY-145" value="" style="endArrow=none;html=1;exitX=1;exitY=0.5;exitDx=0;exitDy=0;" parent="WIyWlLk6GJQsqaUBKTNV-1" source="SmRQewUJQmmx2cG3J2EY-143" edge="1">
          <mxGeometry width="50" height="50" relative="1" as="geometry">
            <mxPoint x="820" y="490" as="sourcePoint" />
            <mxPoint x="260" y="445" as="targetPoint" />
          </mxGeometry>
        </mxCell>
        <mxCell id="SmRQewUJQmmx2cG3J2EY-146" value="" style="endArrow=none;html=1;exitX=0;exitY=0.5;exitDx=0;exitDy=0;entryX=1;entryY=0.5;entryDx=0;entryDy=0;" parent="WIyWlLk6GJQsqaUBKTNV-1" source="SmRQewUJQmmx2cG3J2EY-94" target="SmRQewUJQmmx2cG3J2EY-142" edge="1">
          <mxGeometry width="50" height="50" relative="1" as="geometry">
            <mxPoint x="820" y="490" as="sourcePoint" />
            <mxPoint x="870" y="440" as="targetPoint" />
          </mxGeometry>
        </mxCell>
        <mxCell id="SmRQewUJQmmx2cG3J2EY-147" value="" style="endArrow=none;html=1;exitX=0;exitY=0.5;exitDx=0;exitDy=0;entryX=1;entryY=0.5;entryDx=0;entryDy=0;" parent="WIyWlLk6GJQsqaUBKTNV-1" source="SmRQewUJQmmx2cG3J2EY-93" target="SmRQewUJQmmx2cG3J2EY-144" edge="1">
          <mxGeometry width="50" height="50" relative="1" as="geometry">
            <mxPoint x="820" y="490" as="sourcePoint" />
            <mxPoint x="870" y="440" as="targetPoint" />
          </mxGeometry>
        </mxCell>
        <mxCell id="SmRQewUJQmmx2cG3J2EY-148" value="" style="endArrow=none;html=1;entryX=0.5;entryY=0;entryDx=0;entryDy=0;exitX=0.5;exitY=1;exitDx=0;exitDy=0;" parent="WIyWlLk6GJQsqaUBKTNV-1" source="SmRQewUJQmmx2cG3J2EY-97" target="SmRQewUJQmmx2cG3J2EY-50" edge="1">
          <mxGeometry width="50" height="50" relative="1" as="geometry">
            <mxPoint x="820" y="490" as="sourcePoint" />
            <mxPoint x="870" y="440" as="targetPoint" />
          </mxGeometry>
        </mxCell>
        <mxCell id="SmRQewUJQmmx2cG3J2EY-149" value="" style="endArrow=none;html=1;exitX=0.5;exitY=0;exitDx=0;exitDy=0;entryX=0.5;entryY=1;entryDx=0;entryDy=0;" parent="WIyWlLk6GJQsqaUBKTNV-1" source="SmRQewUJQmmx2cG3J2EY-50" target="SmRQewUJQmmx2cG3J2EY-98" edge="1">
          <mxGeometry width="50" height="50" relative="1" as="geometry">
            <mxPoint x="820" y="490" as="sourcePoint" />
            <mxPoint x="870" y="440" as="targetPoint" />
          </mxGeometry>
        </mxCell>
        <mxCell id="SmRQewUJQmmx2cG3J2EY-151" value="" style="endArrow=none;html=1;exitX=0.5;exitY=0;exitDx=0;exitDy=0;entryX=0.5;entryY=1;entryDx=0;entryDy=0;" parent="WIyWlLk6GJQsqaUBKTNV-1" source="SmRQewUJQmmx2cG3J2EY-97" target="SmRQewUJQmmx2cG3J2EY-134" edge="1">
          <mxGeometry width="50" height="50" relative="1" as="geometry">
            <mxPoint x="820" y="490" as="sourcePoint" />
            <mxPoint x="870" y="440" as="targetPoint" />
          </mxGeometry>
        </mxCell>
        <mxCell id="SmRQewUJQmmx2cG3J2EY-152" value="" style="endArrow=none;html=1;exitX=0;exitY=0.5;exitDx=0;exitDy=0;entryX=0.864;entryY=-0.024;entryDx=0;entryDy=0;entryPerimeter=0;" parent="WIyWlLk6GJQsqaUBKTNV-1" source="SmRQewUJQmmx2cG3J2EY-87" target="SmRQewUJQmmx2cG3J2EY-54" edge="1">
          <mxGeometry width="50" height="50" relative="1" as="geometry">
            <mxPoint x="820" y="490" as="sourcePoint" />
            <mxPoint x="870" y="440" as="targetPoint" />
            <Array as="points">
              <mxPoint x="973" y="680" />
            </Array>
          </mxGeometry>
        </mxCell>
        <mxCell id="SmRQewUJQmmx2cG3J2EY-153" value="&lt;font style=&quot;font-size: 18px&quot;&gt;관리자&lt;/font&gt;" style="rounded=1;whiteSpace=wrap;html=1;" parent="WIyWlLk6GJQsqaUBKTNV-1" vertex="1">
          <mxGeometry x="-80" y="800" width="200" height="80" as="geometry" />
        </mxCell>
        <mxCell id="SmRQewUJQmmx2cG3J2EY-154" value="관리" style="rhombus;whiteSpace=wrap;html=1;" parent="WIyWlLk6GJQsqaUBKTNV-1" vertex="1">
          <mxGeometry x="200" y="800" width="80" height="80" as="geometry" />
        </mxCell>
        <mxCell id="SmRQewUJQmmx2cG3J2EY-155" value="" style="endArrow=none;html=1;exitX=1;exitY=0.5;exitDx=0;exitDy=0;entryX=0;entryY=0.5;entryDx=0;entryDy=0;" parent="WIyWlLk6GJQsqaUBKTNV-1" source="SmRQewUJQmmx2cG3J2EY-153" target="SmRQewUJQmmx2cG3J2EY-154" edge="1">
          <mxGeometry width="50" height="50" relative="1" as="geometry">
            <mxPoint x="480" y="720" as="sourcePoint" />
            <mxPoint x="530" y="670" as="targetPoint" />
          </mxGeometry>
        </mxCell>
        <mxCell id="SmRQewUJQmmx2cG3J2EY-156" value="" style="endArrow=none;html=1;exitX=1;exitY=0.5;exitDx=0;exitDy=0;entryX=0;entryY=0.5;entryDx=0;entryDy=0;" parent="WIyWlLk6GJQsqaUBKTNV-1" source="SmRQewUJQmmx2cG3J2EY-154" target="SmRQewUJQmmx2cG3J2EY-58" edge="1">
          <mxGeometry width="50" height="50" relative="1" as="geometry">
            <mxPoint x="480" y="720" as="sourcePoint" />
            <mxPoint x="530" y="670" as="targetPoint" />
          </mxGeometry>
        </mxCell>
        <mxCell id="SmRQewUJQmmx2cG3J2EY-157" value="" style="endArrow=none;html=1;exitX=0;exitY=1;exitDx=0;exitDy=0;entryX=1;entryY=1;entryDx=0;entryDy=0;" parent="WIyWlLk6GJQsqaUBKTNV-1" source="SmRQewUJQmmx2cG3J2EY-105" target="SmRQewUJQmmx2cG3J2EY-105" edge="1">
          <mxGeometry width="50" height="50" relative="1" as="geometry">
            <mxPoint x="790" y="720" as="sourcePoint" />
            <mxPoint x="840" y="670" as="targetPoint" />
          </mxGeometry>
        </mxCell>
        <mxCell id="SmRQewUJQmmx2cG3J2EY-158" value="" style="endArrow=none;html=1;exitX=0;exitY=1;exitDx=0;exitDy=0;entryX=1;entryY=1;entryDx=0;entryDy=0;" parent="WIyWlLk6GJQsqaUBKTNV-1" source="SmRQewUJQmmx2cG3J2EY-103" target="SmRQewUJQmmx2cG3J2EY-103" edge="1">
          <mxGeometry width="50" height="50" relative="1" as="geometry">
            <mxPoint x="790" y="720" as="sourcePoint" />
            <mxPoint x="840" y="670" as="targetPoint" />
          </mxGeometry>
        </mxCell>
        <mxCell id="SmRQewUJQmmx2cG3J2EY-159" value="개인정보변경" style="ellipse;whiteSpace=wrap;html=1;" parent="WIyWlLk6GJQsqaUBKTNV-1" vertex="1">
          <mxGeometry x="420" y="30" width="80" height="40" as="geometry" />
        </mxCell>
        <mxCell id="SmRQewUJQmmx2cG3J2EY-161" value="" style="endArrow=none;html=1;entryX=0.5;entryY=0;entryDx=0;entryDy=0;exitX=0.5;exitY=1;exitDx=0;exitDy=0;" parent="WIyWlLk6GJQsqaUBKTNV-1" source="SmRQewUJQmmx2cG3J2EY-75" target="SmRQewUJQmmx2cG3J2EY-159" edge="1">
          <mxGeometry width="50" height="50" relative="1" as="geometry">
            <mxPoint x="340" y="370" as="sourcePoint" />
            <mxPoint x="390" y="320" as="targetPoint" />
          </mxGeometry>
        </mxCell>
        <mxCell id="SmRQewUJQmmx2cG3J2EY-162" value="" style="endArrow=none;html=1;exitX=0;exitY=1;exitDx=0;exitDy=0;entryX=1;entryY=1;entryDx=0;entryDy=0;" parent="WIyWlLk6GJQsqaUBKTNV-1" source="SmRQewUJQmmx2cG3J2EY-112" target="SmRQewUJQmmx2cG3J2EY-112" edge="1">
          <mxGeometry width="50" height="50" relative="1" as="geometry">
            <mxPoint x="340" y="610" as="sourcePoint" />
            <mxPoint x="390" y="560" as="targetPoint" />
          </mxGeometry>
        </mxCell>
        <mxCell id="SmRQewUJQmmx2cG3J2EY-163" value="관리자ID" style="ellipse;whiteSpace=wrap;html=1;fillColor=#f8cecc;strokeColor=#b85450;" parent="WIyWlLk6GJQsqaUBKTNV-1" vertex="1">
          <mxGeometry x="-110" y="900" width="80" height="40" as="geometry" />
        </mxCell>
        <mxCell id="SmRQewUJQmmx2cG3J2EY-164" value="관리자명" style="ellipse;whiteSpace=wrap;html=1;" parent="WIyWlLk6GJQsqaUBKTNV-1" vertex="1">
          <mxGeometry x="70" y="900" width="80" height="40" as="geometry" />
        </mxCell>
        <mxCell id="SmRQewUJQmmx2cG3J2EY-165" value="비밀번호" style="ellipse;whiteSpace=wrap;html=1;" parent="WIyWlLk6GJQsqaUBKTNV-1" vertex="1">
          <mxGeometry x="-20" y="900" width="80" height="40" as="geometry" />
        </mxCell>
        <mxCell id="SmRQewUJQmmx2cG3J2EY-166" value="" style="endArrow=none;html=1;exitX=0;exitY=1;exitDx=0;exitDy=0;entryX=1;entryY=1;entryDx=0;entryDy=0;" parent="WIyWlLk6GJQsqaUBKTNV-1" source="SmRQewUJQmmx2cG3J2EY-163" target="SmRQewUJQmmx2cG3J2EY-163" edge="1">
          <mxGeometry width="50" height="50" relative="1" as="geometry">
            <mxPoint x="340" y="610" as="sourcePoint" />
            <mxPoint x="390" y="560" as="targetPoint" />
          </mxGeometry>
        </mxCell>
        <mxCell id="SmRQewUJQmmx2cG3J2EY-167" value="" style="endArrow=none;html=1;exitX=0.5;exitY=1;exitDx=0;exitDy=0;entryX=0.5;entryY=0;entryDx=0;entryDy=0;" parent="WIyWlLk6GJQsqaUBKTNV-1" source="SmRQewUJQmmx2cG3J2EY-58" target="SmRQewUJQmmx2cG3J2EY-110" edge="1">
          <mxGeometry width="50" height="50" relative="1" as="geometry">
            <mxPoint x="340" y="720" as="sourcePoint" />
            <mxPoint x="390" y="670" as="targetPoint" />
          </mxGeometry>
        </mxCell>
        <mxCell id="SmRQewUJQmmx2cG3J2EY-168" value="" style="endArrow=none;html=1;exitX=0.5;exitY=1;exitDx=0;exitDy=0;entryX=0.5;entryY=0;entryDx=0;entryDy=0;" parent="WIyWlLk6GJQsqaUBKTNV-1" source="SmRQewUJQmmx2cG3J2EY-58" target="SmRQewUJQmmx2cG3J2EY-112" edge="1">
          <mxGeometry width="50" height="50" relative="1" as="geometry">
            <mxPoint x="470" y="890" as="sourcePoint" />
            <mxPoint x="370" y="910" as="targetPoint" />
          </mxGeometry>
        </mxCell>
        <mxCell id="SmRQewUJQmmx2cG3J2EY-169" value="" style="endArrow=none;html=1;exitX=0.5;exitY=1;exitDx=0;exitDy=0;entryX=0.5;entryY=0;entryDx=0;entryDy=0;" parent="WIyWlLk6GJQsqaUBKTNV-1" source="SmRQewUJQmmx2cG3J2EY-58" target="SmRQewUJQmmx2cG3J2EY-111" edge="1">
          <mxGeometry width="50" height="50" relative="1" as="geometry">
            <mxPoint x="340" y="720" as="sourcePoint" />
            <mxPoint x="390" y="670" as="targetPoint" />
          </mxGeometry>
        </mxCell>
        <mxCell id="SmRQewUJQmmx2cG3J2EY-170" value="한줄평 조회" style="ellipse;whiteSpace=wrap;html=1;" parent="WIyWlLk6GJQsqaUBKTNV-1" vertex="1">
          <mxGeometry x="320" y="960" width="80" height="40" as="geometry" />
        </mxCell>
        <mxCell id="SmRQewUJQmmx2cG3J2EY-171" value="한줄평 작성" style="ellipse;whiteSpace=wrap;html=1;" parent="WIyWlLk6GJQsqaUBKTNV-1" vertex="1">
          <mxGeometry x="420" y="960" width="80" height="40" as="geometry" />
        </mxCell>
        <mxCell id="SmRQewUJQmmx2cG3J2EY-172" value="한줄평 변경" style="ellipse;whiteSpace=wrap;html=1;" parent="WIyWlLk6GJQsqaUBKTNV-1" vertex="1">
          <mxGeometry x="520" y="960" width="80" height="40" as="geometry" />
        </mxCell>
        <mxCell id="SmRQewUJQmmx2cG3J2EY-173" value="한줄평 삭제" style="ellipse;whiteSpace=wrap;html=1;" parent="WIyWlLk6GJQsqaUBKTNV-1" vertex="1">
          <mxGeometry x="320" y="1020" width="80" height="40" as="geometry" />
        </mxCell>
        <mxCell id="SmRQewUJQmmx2cG3J2EY-174" value="" style="endArrow=none;html=1;exitX=0.5;exitY=1;exitDx=0;exitDy=0;entryX=0.5;entryY=0;entryDx=0;entryDy=0;" parent="WIyWlLk6GJQsqaUBKTNV-1" source="SmRQewUJQmmx2cG3J2EY-110" target="SmRQewUJQmmx2cG3J2EY-170" edge="1">
          <mxGeometry width="50" height="50" relative="1" as="geometry">
            <mxPoint x="340" y="610" as="sourcePoint" />
            <mxPoint x="390" y="560" as="targetPoint" />
          </mxGeometry>
        </mxCell>
        <mxCell id="SmRQewUJQmmx2cG3J2EY-175" value="" style="endArrow=none;html=1;exitX=0.5;exitY=1;exitDx=0;exitDy=0;entryX=0.5;entryY=0;entryDx=0;entryDy=0;" parent="WIyWlLk6GJQsqaUBKTNV-1" source="SmRQewUJQmmx2cG3J2EY-111" target="SmRQewUJQmmx2cG3J2EY-171" edge="1">
          <mxGeometry width="50" height="50" relative="1" as="geometry">
            <mxPoint x="340" y="610" as="sourcePoint" />
            <mxPoint x="390" y="560" as="targetPoint" />
          </mxGeometry>
        </mxCell>
        <mxCell id="SmRQewUJQmmx2cG3J2EY-176" value="" style="endArrow=none;html=1;exitX=0.5;exitY=1;exitDx=0;exitDy=0;entryX=0.5;entryY=0;entryDx=0;entryDy=0;" parent="WIyWlLk6GJQsqaUBKTNV-1" source="SmRQewUJQmmx2cG3J2EY-112" target="SmRQewUJQmmx2cG3J2EY-172" edge="1">
          <mxGeometry width="50" height="50" relative="1" as="geometry">
            <mxPoint x="340" y="610" as="sourcePoint" />
            <mxPoint x="390" y="560" as="targetPoint" />
          </mxGeometry>
        </mxCell>
        <mxCell id="SmRQewUJQmmx2cG3J2EY-177" value="" style="endArrow=none;html=1;exitX=0.5;exitY=1;exitDx=0;exitDy=0;entryX=0.5;entryY=0;entryDx=0;entryDy=0;" parent="WIyWlLk6GJQsqaUBKTNV-1" source="SmRQewUJQmmx2cG3J2EY-170" target="SmRQewUJQmmx2cG3J2EY-173" edge="1">
          <mxGeometry width="50" height="50" relative="1" as="geometry">
            <mxPoint x="340" y="610" as="sourcePoint" />
            <mxPoint x="390" y="560" as="targetPoint" />
          </mxGeometry>
        </mxCell>
        <mxCell id="SmRQewUJQmmx2cG3J2EY-178" value="" style="endArrow=none;html=1;exitX=0.5;exitY=1;exitDx=0;exitDy=0;entryX=0.5;entryY=0;entryDx=0;entryDy=0;" parent="WIyWlLk6GJQsqaUBKTNV-1" source="SmRQewUJQmmx2cG3J2EY-153" target="SmRQewUJQmmx2cG3J2EY-163" edge="1">
          <mxGeometry width="50" height="50" relative="1" as="geometry">
            <mxPoint x="340" y="610" as="sourcePoint" />
            <mxPoint x="390" y="560" as="targetPoint" />
          </mxGeometry>
        </mxCell>
        <mxCell id="SmRQewUJQmmx2cG3J2EY-179" value="" style="endArrow=none;html=1;entryX=0.5;entryY=0;entryDx=0;entryDy=0;" parent="WIyWlLk6GJQsqaUBKTNV-1" target="SmRQewUJQmmx2cG3J2EY-164" edge="1">
          <mxGeometry width="50" height="50" relative="1" as="geometry">
            <mxPoint x="20" y="880" as="sourcePoint" />
            <mxPoint x="-60" y="910" as="targetPoint" />
          </mxGeometry>
        </mxCell>
        <mxCell id="SmRQewUJQmmx2cG3J2EY-180" value="" style="endArrow=none;html=1;entryX=0.5;entryY=0;entryDx=0;entryDy=0;exitX=0.5;exitY=1;exitDx=0;exitDy=0;" parent="WIyWlLk6GJQsqaUBKTNV-1" source="SmRQewUJQmmx2cG3J2EY-153" target="SmRQewUJQmmx2cG3J2EY-165" edge="1">
          <mxGeometry width="50" height="50" relative="1" as="geometry">
            <mxPoint x="30" y="890" as="sourcePoint" />
            <mxPoint x="120" y="910" as="targetPoint" />
          </mxGeometry>
        </mxCell>
        <mxCell id="SmRQewUJQmmx2cG3J2EY-181" value="출판사명" style="ellipse;whiteSpace=wrap;html=1;" parent="WIyWlLk6GJQsqaUBKTNV-1" vertex="1">
          <mxGeometry x="760" y="960" width="80" height="40" as="geometry" />
        </mxCell>
        <mxCell id="SmRQewUJQmmx2cG3J2EY-182" value="등록일자" style="ellipse;whiteSpace=wrap;html=1;" parent="WIyWlLk6GJQsqaUBKTNV-1" vertex="1">
          <mxGeometry x="860" y="960" width="80" height="40" as="geometry" />
        </mxCell>
        <mxCell id="SmRQewUJQmmx2cG3J2EY-183" value="판매가" style="ellipse;whiteSpace=wrap;html=1;" parent="WIyWlLk6GJQsqaUBKTNV-1" vertex="1">
          <mxGeometry x="960" y="960" width="80" height="40" as="geometry" />
        </mxCell>
        <mxCell id="SmRQewUJQmmx2cG3J2EY-185" value="" style="endArrow=none;html=1;entryX=0.5;entryY=1;entryDx=0;entryDy=0;exitX=0.5;exitY=0;exitDx=0;exitDy=0;" parent="WIyWlLk6GJQsqaUBKTNV-1" source="SmRQewUJQmmx2cG3J2EY-103" target="SmRQewUJQmmx2cG3J2EY-54" edge="1">
          <mxGeometry width="50" height="50" relative="1" as="geometry">
            <mxPoint x="800" y="610" as="sourcePoint" />
            <mxPoint x="850" y="560" as="targetPoint" />
          </mxGeometry>
        </mxCell>
        <mxCell id="SmRQewUJQmmx2cG3J2EY-186" value="" style="endArrow=none;html=1;entryX=0.5;entryY=1;entryDx=0;entryDy=0;exitX=0.5;exitY=0;exitDx=0;exitDy=0;" parent="WIyWlLk6GJQsqaUBKTNV-1" source="SmRQewUJQmmx2cG3J2EY-107" target="SmRQewUJQmmx2cG3J2EY-54" edge="1">
          <mxGeometry width="50" height="50" relative="1" as="geometry">
            <mxPoint x="810" y="910" as="sourcePoint" />
            <mxPoint x="910" y="890" as="targetPoint" />
          </mxGeometry>
        </mxCell>
        <mxCell id="SmRQewUJQmmx2cG3J2EY-187" value="" style="endArrow=none;html=1;entryX=0.5;entryY=1;entryDx=0;entryDy=0;exitX=0.5;exitY=0;exitDx=0;exitDy=0;" parent="WIyWlLk6GJQsqaUBKTNV-1" source="SmRQewUJQmmx2cG3J2EY-105" target="SmRQewUJQmmx2cG3J2EY-54" edge="1">
          <mxGeometry width="50" height="50" relative="1" as="geometry">
            <mxPoint x="1010" y="910" as="sourcePoint" />
            <mxPoint x="910" y="890" as="targetPoint" />
          </mxGeometry>
        </mxCell>
        <mxCell id="SmRQewUJQmmx2cG3J2EY-188" value="" style="endArrow=none;html=1;entryX=0.5;entryY=1;entryDx=0;entryDy=0;exitX=0.5;exitY=0;exitDx=0;exitDy=0;" parent="WIyWlLk6GJQsqaUBKTNV-1" source="SmRQewUJQmmx2cG3J2EY-181" target="SmRQewUJQmmx2cG3J2EY-103" edge="1">
          <mxGeometry width="50" height="50" relative="1" as="geometry">
            <mxPoint x="910" y="910" as="sourcePoint" />
            <mxPoint x="910" y="890" as="targetPoint" />
          </mxGeometry>
        </mxCell>
        <mxCell id="SmRQewUJQmmx2cG3J2EY-189" value="" style="endArrow=none;html=1;entryX=0.5;entryY=1;entryDx=0;entryDy=0;exitX=0.5;exitY=0;exitDx=0;exitDy=0;" parent="WIyWlLk6GJQsqaUBKTNV-1" source="SmRQewUJQmmx2cG3J2EY-182" target="SmRQewUJQmmx2cG3J2EY-105" edge="1">
          <mxGeometry width="50" height="50" relative="1" as="geometry">
            <mxPoint x="810" y="970" as="sourcePoint" />
            <mxPoint x="810" y="950" as="targetPoint" />
          </mxGeometry>
        </mxCell>
        <mxCell id="SmRQewUJQmmx2cG3J2EY-190" value="" style="endArrow=none;html=1;entryX=0.5;entryY=1;entryDx=0;entryDy=0;exitX=0.5;exitY=0;exitDx=0;exitDy=0;" parent="WIyWlLk6GJQsqaUBKTNV-1" source="SmRQewUJQmmx2cG3J2EY-183" target="SmRQewUJQmmx2cG3J2EY-107" edge="1">
          <mxGeometry width="50" height="50" relative="1" as="geometry">
            <mxPoint x="910" y="970" as="sourcePoint" />
            <mxPoint x="910" y="950" as="targetPoint" />
          </mxGeometry>
        </mxCell>
        <mxCell id="SmRQewUJQmmx2cG3J2EY-191" value="" style="endArrow=none;html=1;entryX=0.5;entryY=0;entryDx=0;entryDy=0;exitX=0.5;exitY=1;exitDx=0;exitDy=0;" parent="WIyWlLk6GJQsqaUBKTNV-1" source="SmRQewUJQmmx2cG3J2EY-135" target="SmRQewUJQmmx2cG3J2EY-98" edge="1">
          <mxGeometry width="50" height="50" relative="1" as="geometry">
            <mxPoint x="710" y="530" as="sourcePoint" />
            <mxPoint x="760" y="480" as="targetPoint" />
          </mxGeometry>
        </mxCell>
        <mxCell id="SmRQewUJQmmx2cG3J2EY-192" value="" style="endArrow=none;html=1;entryX=0.5;entryY=0;entryDx=0;entryDy=0;exitX=0.5;exitY=1;exitDx=0;exitDy=0;" parent="WIyWlLk6GJQsqaUBKTNV-1" source="SmRQewUJQmmx2cG3J2EY-99" target="SmRQewUJQmmx2cG3J2EY-136" edge="1">
          <mxGeometry width="50" height="50" relative="1" as="geometry">
            <mxPoint x="710" y="530" as="sourcePoint" />
            <mxPoint x="760" y="480" as="targetPoint" />
          </mxGeometry>
        </mxCell>
        <mxCell id="SmRQewUJQmmx2cG3J2EY-193" value="" style="endArrow=none;html=1;entryX=0;entryY=0.5;entryDx=0;entryDy=0;exitX=1;exitY=0.5;exitDx=0;exitDy=0;" parent="WIyWlLk6GJQsqaUBKTNV-1" source="SmRQewUJQmmx2cG3J2EY-86" target="SmRQewUJQmmx2cG3J2EY-90" edge="1">
          <mxGeometry width="50" height="50" relative="1" as="geometry">
            <mxPoint x="710" y="530" as="sourcePoint" />
            <mxPoint x="760" y="480" as="targetPoint" />
          </mxGeometry>
        </mxCell>
        <mxCell id="SmRQewUJQmmx2cG3J2EY-194" value="" style="endArrow=none;html=1;entryX=0;entryY=0.5;entryDx=0;entryDy=0;exitX=1;exitY=0.5;exitDx=0;exitDy=0;" parent="WIyWlLk6GJQsqaUBKTNV-1" source="SmRQewUJQmmx2cG3J2EY-86" target="SmRQewUJQmmx2cG3J2EY-91" edge="1">
          <mxGeometry width="50" height="50" relative="1" as="geometry">
            <mxPoint x="710" y="530" as="sourcePoint" />
            <mxPoint x="760" y="480" as="targetPoint" />
          </mxGeometry>
        </mxCell>
        <mxCell id="SmRQewUJQmmx2cG3J2EY-195" value="" style="endArrow=none;html=1;entryX=0.5;entryY=0;entryDx=0;entryDy=0;exitX=0.5;exitY=1;exitDx=0;exitDy=0;" parent="WIyWlLk6GJQsqaUBKTNV-1" source="SmRQewUJQmmx2cG3J2EY-136" target="SmRQewUJQmmx2cG3J2EY-50" edge="1">
          <mxGeometry width="50" height="50" relative="1" as="geometry">
            <mxPoint x="710" y="530" as="sourcePoint" />
            <mxPoint x="760" y="480" as="targetPoint" />
          </mxGeometry>
        </mxCell>
      </root>
    </mxGraphModel>
  </diagram>
</mxfile>
